<?xml version="1.0" encoding="utf-8"?>
<!-- Generator: Adobe Illustrator 24.0.0, SVG Export Plug-In . SVG Version: 6.00 Build 0)  -->
<svg version="1.1" id="Layer_1" xmlns="http://www.w3.org/2000/svg" xmlns:xlink="http://www.w3.org/1999/xlink" x="0px" y="0px"
	 viewBox="0 0 612.1 430.2" style="enable-background:new 0 0 612.1 430.2;" xml:space="preserve">
<style type="text/css">
	.st0{fill:#FFFFFF;}
	.st1{fill:none;}
	.st2{fill:url(#SVGID_1_);}
	.st3{fill:url(#SVGID_2_);}
	.st4{fill:#4E4E4E;}
	.st5{fill:#0071BC;}
	.st6{fill:#C1272D;}
	.st7{fill:#FCEE21;}
	.st8{fill:url(#SVGID_3_);}
	.st9{fill:url(#SVGID_4_);}
	.st10{fill:#B3B3B3;}
	.st11{fill:#0082CE;}
	.st12{fill:#EC3434;}
	.st13{fill:#FADC30;}
	.st14{fill:#CBCBCB;}
	.st15{fill:#F6921F;}
	.st16{fill:#C9721A;}
	.st17{fill:#A4A4A6;}
	.st18{fill:#666666;}
</style>
<g>
	<g>
		<path class="st0" d="M313.6,326.4c-1-7-2.7-16.1-6.9-25.1c-1.6-3.4-3.5-6.1-5.9-8.4c-4.1-3.9-8.3-4.7-11.1-4.7
			c-2.4,0-4.8,0.6-7.2,1.7c-2.3,1.1-4.3,2.4-5.6,3.4c-3.9,2.8-7.2,5-10.2,7c-6.4,4.1-14.1,8.5-22.7,11c-4,1.2-7.9,1.7-11.5,1.7
			c-5.5,0-10.7-1.3-15.7-4c-5.5-2.9-10.6-7.3-15.9-13.6c-8.7-10.3-15.2-21.9-20.4-31.9c-5-9.6-10-19.5-14.8-29.1l-2.9-5.7
			c-1.9-3.8-5.9-8.8-13.7-10.9l-0.1,0c-0.4-0.1-1.1-0.3-2-0.5c-5.9-12.3-9.4-24.3-10.7-36.5c-1.1-10.9-0.5-20.8,1.8-30.3
			c1.4-5.5,3.6-10.8,5.9-15.7c1.1-2.4,1.3-4.6,1.1-6.4c0.2-0.7,0.3-1.5,0.3-2.3c2.2-3,3.6-6.1,4.5-8.7c0,0,0.1,0,0.1-0.1
			c5.1-2.8,6.2-7.9,5.5-11.4c-0.8-4-3.6-7.2-7.2-8.4c-2-2.3-5-3.6-8.1-3.6c-1.2,0-2.4,0.2-3.6,0.6c-4.1,1.5-6.7,5.2-7,9.4
			c-3.5,3.4-5.6,7.2-6.5,11.4c-3,0.9-5.7,3-7.3,6l-0.2,0.4c-0.9,1.7-1.8,3.4-2.7,5.3c-0.8,1.9-1.6,3.7-2.3,5.5
			c-0.1-1.8-0.3-3.6-0.8-5.5c3.5-5.8,0.8-11.1-1.4-13.3c-2.1-2-4.8-3.2-7.7-3.2c-1.4,0-2.6,0.2-3.6,0.6c-0.7-0.1-1.3-0.2-2-0.2
			c-3.1,0-6.1,1.3-8.3,3.6c-2.8,2.9-4,7.6-1.9,12c-0.7,3.7-0.7,8.3,1.5,13.6c-0.3,0.9-0.4,1.8-0.5,2.7c-0.8,2-1,4.4-0.6,7
			c0.8,6.2,2,12.6,3.9,19.8c0.5,1.8,1,3.6,1.5,5.4c-1.9-1.4-3.8-2.8-5.7-4.1c-12.9-8.9-28.1-15-46.3-18.8c-0.9-0.2-1.7-0.3-2.6-0.3
			c-2.6,0-5,0.8-6.9,2.3c-3.5-0.9-6.8-1.1-9.8-1.1c-2.7-2.7-5.9-3-7.4-3c-1.2,0-2.4,0.2-3.6,0.6c-3.3,1.2-7,4.5-7.1,10.1
			c-0.9,1.5-1.4,3.3-1.4,5v0.9c0,5.4,4.3,9.8,9.7,10c0.4,0,0.9,0.1,1.3,0.1c0.5,0,1,0,1.5-0.1c3,1.5,6.2,2.2,9.7,2.2l0.1,0
			c1,0,2,0,3.1,0.1c1.3,1.6,3.4,3.3,6.7,3.9l0.5,0.1c1.8,0.4,3.5,0.7,5.1,1.1c15.8,3.9,29.6,11.8,42.1,24c8.1,8,15.2,17.5,21.4,29
			c-0.2,0.4-0.5,0.8-0.7,1.2c-2,3.5-3.6,9-0.4,15.8c5.7,12,11.7,23.7,19.1,37.5c13.3,25,31,45.7,52.7,61.7
			c19.7,14.5,41.5,21.8,64.9,21.8c0,0,0,0,0,0c4.3,0,8.7-0.3,13.1-0.8c16.8-1.9,32.3-8.1,46.2-18.3c6.8-5,11.4-10.1,14.6-15.9
			C312.4,336.7,314.4,332.1,313.6,326.4z"/>
		<g>
			<path class="st1" d="M147.1,237c0.6-0.2,0.6-1.2,0.8-1.9c0.7-2.4,0-4.3-2.2-5.6c-0.4-0.2-0.8-0.5-1.1-0.8l1.6,7.4
				C146.4,236.7,146.6,237.1,147.1,237z"/>
			<path class="st1" d="M98.2,129.8c-0.1-0.3-0.1-0.8-0.6-0.7c-0.4,0-0.4,0.4-0.4,0.7c-0.4,2.2,0.1,4.3,1,6.3
				C98.4,134,98.7,131.9,98.2,129.8z"/>
			<path class="st1" d="M24.6,165.5c-1.7-0.6-3.5-1-5.4-0.9c-0.4,0-1,0-1.1,0.5c-0.1,0.6,0.5,0.7,0.8,0.9c1.4,0.6,3,0.8,4.6,0.9
				c0.2,0,0.6,0,0.9-0.1c0.4-0.1,1.1,0,1.2-0.5C25.8,165.8,25.1,165.7,24.6,165.5z"/>
			<path class="st1" d="M115.2,253.4c1.3,1.1,3.1,2.1,4.8,2.4c7.3,1.4,14.4,0.8,21-3c4.9-2.8,8.4-6.9,9.8-12.5
				c0.2-0.7,0.4-1.5,0.1-2.5C142.7,251.6,131.1,257.2,115.2,253.4z"/>
			<path class="st1" d="M139.1,113.8c0.1-0.4,0.3-1-0.1-1.2c-0.4-0.2-0.7,0.2-1,0.5c-1.5,1.7-2.5,3.5-2.9,6.1
				C137.1,117.6,138.5,116,139.1,113.8z"/>
			<radialGradient id="SVGID_1_" cx="21.4419" cy="165.357" r="8.8931" gradientUnits="userSpaceOnUse">
				<stop  offset="1.396622e-02" style="stop-color:#C8AF95"/>
				<stop  offset="0.6248" style="stop-color:#A67C52"/>
			</radialGradient>
			<path class="st2" d="M31.7,164.4c-0.9,0.4-1.7,0.8-2.7,0.3c-3.5-1.5-7.2-1.6-10.9-1.6c-2.2,0-4.1-0.3-5.3-2.4
				c-0.2-0.3-0.5-0.8-0.9-0.6c-0.5,0.2-0.5,0.7-0.5,1.2c0,0.4,0.1,0.8,0.4,1.1c0.6,0.8,0.3,1.4-0.3,2c-0.5,0.5-1,1-1.5,1.4
				c0,0.3,0,0.6,0,0.9c0.5,0,1.1,0.1,1.5,0c1.8-0.8,3.3-0.2,4.8,0.7c1.8,1.1,3.8,1.5,5.9,1.5c1.7,0,3.4,0.1,5.1,0.1
				c1.7,0.1,3.5,0.1,5.2,1.5c-0.5-2-0.4-3.7,0.3-5.3C33.1,164.3,32.6,164,31.7,164.4z M24.5,166.9c-0.3,0.1-0.7,0.1-0.9,0.1
				c-1.7-0.1-3.2-0.3-4.6-0.9c-0.4-0.2-1-0.3-0.8-0.9c0.1-0.5,0.7-0.5,1.1-0.5c1.9-0.1,3.7,0.3,5.4,0.9c0.4,0.2,1.1,0.3,1,0.9
				C25.6,166.9,24.9,166.8,24.5,166.9z"/>
			<radialGradient id="SVGID_2_" cx="168.3835" cy="245.1379" r="127.944" gradientUnits="userSpaceOnUse">
				<stop  offset="0" style="stop-color:#FFFFFF"/>
				<stop  offset="1" style="stop-color:#000000"/>
			</radialGradient>
			<path class="st3" d="M144.3,227.6c0,0-0.1,0.1-0.1,0.1c-0.2,0.4,0,0.8,0.3,1l-0.2-1L144.3,227.6z"/>
			<path class="st4" d="M303.7,327.8c-1.1-7.7-2.8-15.2-6.1-22.3c-0.9-2-2.1-3.9-3.7-5.4c-2.2-2.1-4.4-2.4-7.1-1.2
				c-1.4,0.7-2.7,1.5-4,2.4c-3.5,2.5-7.1,5-10.8,7.4c-7.9,5-16.2,9.5-25.3,12.2c-11.9,3.5-23.6,2.9-34.7-3c-7.4-4-13.5-9.6-18.9-16
				c-8.7-10.3-15.4-21.8-21.6-33.7c-6-11.6-11.8-23.2-17.7-34.8c-1.6-3.1-4.2-4.9-7.4-5.8c-0.7-0.2-1.8-0.7-2.2,0l0,0.2l0.2,1
				c0.3,0.3,0.8,0.6,1.1,0.8c2.2,1.3,2.9,3.1,2.2,5.6c-0.2,0.7-0.2,1.7-0.8,1.9c-0.5,0.1-0.8-0.3-1-0.8l0.2,1.2l-8.2,7.6
				c-12.4,7.6-20.6,3.4-20.6,3.4h-0.1c0.2,0.4,0.3,0.8,0.5,1.2c0.3,0.8,0.2,1.5-0.9,1.3c-3.9-0.6-5.6-1.7-6-5.6c0-0.5,0-1.1,0-1.6
				c0-0.6,0.3-1.5-0.5-1.7c-0.8-0.2-1,0.7-1.3,1.2c-1.3,2.2-1.2,4.3-0.1,6.7c5.9,12.5,12.4,24.8,18.9,37.1
				c12.3,23.1,28.7,42.8,49.8,58.3c21.1,15.5,44.8,22.1,71,19.2c15.2-1.7,29.1-7.3,41.4-16.4c4.7-3.5,8.9-7.4,11.7-12.6
				C303,333,304.1,330.5,303.7,327.8z M150.7,240.3c-1.4,5.6-4.9,9.6-9.8,12.5c-6.6,3.8-13.6,4.4-21,3c-1.7-0.3-3.5-1.3-4.8-2.4
				c16,3.9,27.5-1.8,35.6-15.6C151.1,238.8,150.9,239.5,150.7,240.3z"/>
			<path class="st5" d="M116,217.3c-0.1,0-0.1,0.1-0.2,0.1c-1.1-1.6-2.2-3.2-3.3-4.8c-9.2-13-20-24.4-33.2-33.4
				c-13-8.9-27.4-14.1-42.7-17.3c-1.3-0.3-1.8,0.4-2,1.4c-0.6,2.7-1,5.5-1.6,8.2c-0.2,1,0.2,1.3,1.1,1.5c2,0.4,4,0.8,6,1.3
				c18,4.5,33.4,13.6,46.6,26.6c12.7,12.5,21.9,27.4,29.1,43.6c0.6,1.2,1,2.5,1.5,3.8h0.1c0,0,4.3,2.1,11.2,0.5l-12.6-31.4
				L116,217.3z"/>
			<path class="st6" d="M146.1,236.2c-0.1-0.2-0.2-0.4-0.4-0.6c-0.3-0.3-0.5-0.7-0.7-1.1c-9.7-16.3-16.5-33.5-18.5-52.5
				c-1.2-11.4-0.7-22.6,2-33.8c1.5-6.1,3.9-11.8,6.6-17.5c0.5-1,0.4-1.6-0.7-2.1c-2.3-1-4.6-2.1-6.9-3.3c-1.3-0.7-2.1-0.3-2.7,0.9
				c-0.9,1.7-1.8,3.3-2.6,5.1c-4.2,9.2-7.2,18.8-7.8,29c-0.4,7.2-0.2,14.5-0.3,21.7c0,0.5,0,1,0,1.6c-0.1,0-0.1,0-0.2,0l0,0.2
				c0,0,6.1,41.3,25.4,59.8l6.9-6.3L146.1,236.2z"/>
			<path class="st7" d="M114.1,183.8l0-0.2c-0.4-0.1-0.3-0.4-0.4-0.7c-3.9-12.4-7.4-25-9.2-37.9c-0.1-0.8-0.4-1.2-1.3-1.2
				c-2,0-3.9,0.2-5.7,1c-2.2,1-2.4,1.4-2.2,3.8c0.8,6.2,2.1,12.4,3.7,18.5c4.1,15.8,9.7,31.1,15.8,46.2c0.5,1.2,1,2.5,1.5,3.7
				c-0.1,0-0.1,0.1-0.2,0.1l0.1,0.2l12.6,31.4c2.7-0.6,5.9-1.8,9.4-4l1.4-1.3C120.2,225.1,114.1,183.8,114.1,183.8z"/>
			<radialGradient id="SVGID_3_" cx="98.2697" cy="132.6432" r="8.9133" gradientUnits="userSpaceOnUse">
				<stop  offset="1.396622e-02" style="stop-color:#C8AF95"/>
				<stop  offset="0.6248" style="stop-color:#A67C52"/>
			</radialGradient>
			<path class="st8" d="M95.6,126.3c-1.7,4.1-1,8,1,11.8c0.8,1.6,1,3-0.1,4.5c-0.3,0.4-0.6,0.9-0.4,1.9c1.6-1.6,3.2-2.3,5.2-1.2
				c0.1,0,0.2,0,0.3,0c0.4,0,0.9,0,1.1-0.4c0.2-0.3-0.1-0.7-0.4-0.9c-1.3-1.3-1.4-2.9-1.4-4.6c0.1-3.1,0.1-6.1-0.9-9
				c-0.8-2.1-0.7-3.8,0.8-5.5c0.5-0.5,1.3-1.4,0.8-1.9c-0.6-0.6-1.7-0.1-2.5,0.4c-0.1,0.1-0.3,0.1-0.4,0.2c-0.8,0.8-1.5,1-2.4,0
				c-0.6-0.6-1.5-0.7-2.2-0.1c-0.6,0.6,0.2,1.1,0.5,1.5C95.3,124.1,96.1,125,95.6,126.3z M97.2,129.8c0.1-0.3,0-0.7,0.4-0.7
				c0.5-0.1,0.5,0.4,0.6,0.7c0.5,2.1,0.2,4.2,0,6.3C97.3,134.1,96.7,132,97.2,129.8z"/>
			<radialGradient id="SVGID_4_" cx="138.0827" cy="115.3975" r="9.7645" gradientUnits="userSpaceOnUse">
				<stop  offset="1.396622e-02" style="stop-color:#C8AF95"/>
				<stop  offset="0.6248" style="stop-color:#A67C52"/>
			</radialGradient>
			<path class="st9" d="M133.3,125.5c0.1,0.3,0.6,0.5,0.9,0.8c0.4,0.3,0.8,0.6,1.2,0.3c0.4-0.3,0.3-0.8,0.1-1.2
				c-0.4-1.2-0.3-2.4,0.6-3.3c2.6-2.7,4.1-6,5.1-9.5c0.5-1.6,1.5-2.6,3-3.2c0.3-0.1,0.6-0.3,0.9-0.4c0.3-0.2,0.8-0.3,0.7-0.9
				c-0.1-0.4-0.4-0.9-0.8-0.8c-2.2,0.4-3.1-1-4-2.6c-0.2-0.3-0.7-0.6-1-0.4c-0.5,0.2-0.4,0.7-0.3,1.1c0.5,2.4-0.7,4-2.3,5.4
				c-2.2,2-4,4.3-4.5,7.2c-0.4,2.3-1.1,4.2-2.9,5.8C131.7,123.6,132.7,124.1,133.3,125.5z M138,113.1c0.2-0.3,0.6-0.7,1-0.5
				c0.5,0.3,0.2,0.8,0.1,1.2c-0.6,2.2-2,3.8-4,5.4C135.5,116.6,136.5,114.8,138,113.1z"/>
		</g>
	</g>
	<g id="XMLID_91_">
		<circle id="XMLID_104_" class="st0" cx="366.6" cy="197.5" r="159.6"/>
		<path id="XMLID_101_" class="st10" d="M365.9,35.9c21.8-0.1,43,4.1,62.9,12.4c19.3,8.1,36.6,19.6,51.5,34.4
			c14.9,14.8,26.6,32,34.9,51.2c8.5,19.9,12.9,41,12.9,62.8c0.1,21.8-4.1,43-12.4,62.9c-8.1,19.3-19.6,36.6-34.4,51.5
			s-32,26.6-51.2,34.9c-19.9,8.5-41,12.9-62.8,12.9c-21.8,0.1-43-4.1-62.9-12.4c-19.3-8.1-36.6-19.6-51.5-34.4s-26.6-32-34.9-51.2
			c-8.5-19.9-12.9-41-12.9-62.8c-0.1-21.8,4.1-43,12.4-62.9c8.1-19.3,19.6-36.6,34.4-51.5s32-26.6,51.2-34.9
			C323,40.4,344.1,36,365.9,35.9 M365.8,0C256.7,0.4,168.6,89.2,169.1,198.3c0.4,109.1,89.2,197.2,198.3,196.7
			c109.1-0.4,197.2-89.2,196.7-198.3C563.7,87.6,474.9-0.4,365.8,0L365.8,0z"/>
		<polygon id="XMLID_100_" class="st11" points="379.2,76.9 369.9,76.9 369.8,48.7 362.4,48.7 362.5,76.9 353.3,77 353.6,155.4 
			362.9,155.4 363,186.3 370.3,186.3 370.2,155.4 379.5,155.3 		"/>
		<path id="XMLID_99_" class="st11" d="M522.5,188.9C522.5,188.8,522.5,188.8,522.5,188.9c-0.1-1.3-0.2-2.4-0.2-3.6
			c-0.1-0.9-0.1-1.7-0.2-2.6c0-0.3-0.1-0.6-0.1-0.9c-1.9-18.5-7.1-36.7-15.4-53.5c0,0,0-0.1-0.1-0.1c0-0.1-0.1-0.2-0.1-0.3
			c-0.3-0.6-0.6-1.2-0.9-1.7c-0.3-0.5-0.5-1-0.8-1.5c-0.2-0.3-0.3-0.6-0.5-1c-0.5-0.8-0.9-1.7-1.4-2.5c-0.1-0.3-0.3-0.5-0.4-0.8
			c-0.5-0.9-1.1-1.8-1.6-2.7c-0.1-0.2-0.2-0.4-0.3-0.5c-0.6-1-1.2-2-1.8-2.9c-0.1-0.1-0.1-0.2-0.2-0.3c-0.7-1.1-1.4-2.1-2.1-3.2
			c0,0,0,0,0,0c-2.2-3.3-4.6-6.5-7.1-9.7c-0.9-1.2-1.9-2.4-2.9-3.5c-0.2-0.2-0.3-0.4-0.5-0.6c-0.7-0.8-1.4-1.7-2.1-2.5
			c-0.4-0.5-0.9-1-1.4-1.5c-0.4-0.4-0.8-0.9-1.2-1.3c-0.6-0.7-1.2-1.3-1.9-2c-0.1-0.1-0.3-0.3-0.4-0.4c-4.2-4.4-8.7-8.5-13.4-12.3
			c-0.2-0.2-0.5-0.4-0.7-0.5c-0.7-0.6-1.4-1.1-2.1-1.7c-0.9-0.7-1.8-1.4-2.7-2.1c0,0-0.1-0.1-0.1-0.1c-2.1-1.6-4.3-3.1-6.6-4.6
			c-7.4-4.9-15-9.2-22.9-12.7c-0.2-0.1-0.4-0.2-0.6-0.3c-0.5-0.2-1-0.4-1.4-0.6c-1-0.4-1.9-0.8-2.9-1.2c-0.1,0-0.2-0.1-0.3-0.1
			c-14.8-6-30.3-9.6-46.1-10.9c-0.1,0-0.2,0-0.3,0c-1.2-0.1-2.3-0.2-3.5-0.2c-0.3,0-0.6,0-1-0.1c-0.8,0-1.6-0.1-2.4-0.1
			c-1.9-0.1-3.7-0.1-5.7-0.1l0,8.6c10.8,0,22,1.2,32.7,3.6c0,0,0,0,0,0c1,0.2,2.1,0.5,3.1,0.7c0.3,0.1,0.7,0.2,1,0.3
			c0.7,0.2,1.5,0.4,2.2,0.6c0.4,0.1,0.7,0.2,1.1,0.3c1,0.3,1.9,0.5,2.8,0.8c0.5,0.2,1,0.3,1.5,0.5c0.5,0.2,1,0.3,1.5,0.5
			c0.6,0.2,1.2,0.4,1.8,0.6c0.4,0.1,0.7,0.3,1.1,0.4c2.3,0.8,4.5,1.6,6.8,2.5c0.1,0,0.2,0.1,0.2,0.1c0.5,0.2,0.9,0.4,1.4,0.6
			c2.1,0.9,4.1,1.8,6.1,2.7c0,0,0.1,0,0.1,0.1c0,0,0,0,0,0c1.2,0.6,2.4,1.2,3.6,1.8c0.6,0.3,1.2,0.6,1.8,1c0.5,0.2,0.9,0.5,1.4,0.7
			c0.9,0.5,1.8,1,2.7,1.5c0.1,0.1,0.2,0.1,0.3,0.2c10.5,6,20.2,13.2,28.9,21.5c8.1,7.7,15.2,16.3,21.4,25.7c0.2,0.3,0.4,0.7,0.6,1
			c0.1,0.2,0.2,0.3,0.3,0.5c0.5,0.8,1,1.6,1.5,2.4c0.2,0.3,0.4,0.6,0.6,0.9c0.4,0.7,0.8,1.3,1.2,2c0.2,0.4,0.5,0.8,0.7,1.3
			c0,0,0.1,0.1,0.1,0.1c0,0,0,0,0,0c0.3,0.5,0.6,1,0.9,1.6c0.2,0.4,0.5,0.9,0.7,1.3c0.1,0.2,0.2,0.4,0.4,0.7
			c0.2,0.4,0.4,0.7,0.6,1.1c0.2,0.4,0.4,0.8,0.6,1.2c0.2,0.4,0.4,0.8,0.6,1.2c0.1,0.2,0.2,0.5,0.3,0.7c0.2,0.4,0.4,0.8,0.6,1.2
			c0.4,0.8,0.7,1.5,1.1,2.3c0.1,0.3,0.3,0.6,0.4,0.8c0.4,0.8,0.7,1.7,1.1,2.5c0.1,0.1,0.1,0.3,0.2,0.4c0,0.1,0.1,0.2,0.1,0.3
			c0.4,0.9,0.7,1.7,1.1,2.6c0.1,0.3,0.3,0.6,0.4,0.9c0.3,0.8,0.6,1.5,0.9,2.3c0.2,0.4,0.3,0.9,0.5,1.3c0.2,0.6,0.5,1.3,0.7,1.9
			c0.2,0.6,0.4,1.2,0.6,1.8c0.2,0.5,0.3,1,0.5,1.5c0.2,0.7,0.5,1.5,0.7,2.2c0.1,0.4,0.2,0.7,0.3,1.1c0.3,0.9,0.5,1.7,0.7,2.6
			c0,0.1,0.1,0.3,0.1,0.4c0,0.2,0.1,0.3,0.1,0.5c0.2,0.8,0.5,1.7,0.7,2.5c0.1,0.3,0.2,0.7,0.2,1c0.2,0.8,0.4,1.6,0.6,2.4
			c0.1,0.5,0.2,0.9,0.3,1.4c0.1,0.6,0.3,1.3,0.4,1.9c0.1,0.7,0.3,1.4,0.4,2.1c0.1,0.4,0.2,0.8,0.2,1.2c0.2,1,0.4,2,0.5,3.1
			c0,0.1,0,0.2,0,0.3c0.9,5.6,1.4,11.2,1.6,16.9c0.4,10.3-0.3,20.5-2,30.7c0,0.3-0.1,0.5-0.1,0.8c-0.1,0.7-0.2,1.4-0.4,2
			c0,0.2-0.1,0.4-0.1,0.6c-0.1,0.5-0.2,1.1-0.3,1.6c-0.1,0.6-0.3,1.3-0.4,1.9c-0.1,0.6-0.3,1.3-0.4,1.9c-0.1,0.6-0.3,1.1-0.4,1.7
			c-0.2,0.6-0.3,1.3-0.5,1.9c-0.1,0.5-0.3,1.1-0.4,1.6c-0.2,0.6-0.3,1.2-0.5,1.8c-0.2,0.6-0.3,1.2-0.5,1.7c-0.2,0.6-0.3,1.1-0.5,1.7
			c-0.2,0.6-0.4,1.2-0.6,1.9c-0.2,0.5-0.3,1-0.5,1.5c-0.2,0.6-0.4,1.3-0.7,1.9c-0.2,0.5-0.4,1-0.6,1.5c-0.2,0.6-0.5,1.3-0.7,1.9
			c-0.2,0.6-0.4,1.1-0.7,1.7c-0.1,0.2-0.2,0.5-0.3,0.7c-0.1,0.3-0.3,0.6-0.4,1c-0.1,0.2-0.1,0.3-0.2,0.5c-0.1,0.3-0.3,0.6-0.4,1
			c-0.2,0.4-0.3,0.8-0.5,1.2c-0.1,0.2-0.1,0.3-0.2,0.5c-0.2,0.5-0.4,1-0.7,1.5c-0.2,0.5-0.5,1-0.7,1.5c-0.3,0.5-0.5,1.1-0.8,1.6
			c-0.3,0.5-0.5,1.1-0.8,1.6c-0.2,0.5-0.5,1-0.7,1.5c-0.3,0.6-0.6,1.2-0.9,1.8c-0.2,0.4-0.4,0.8-0.7,1.3c-0.2,0.3-0.3,0.6-0.5,0.9
			c-0.2,0.4-0.4,0.7-0.6,1.1c-0.2,0.3-0.4,0.7-0.6,1c-0.5,0.8-0.9,1.6-1.4,2.4c-0.1,0.1-0.2,0.3-0.3,0.4
			c-7.4,12.2-16.4,23.2-27,32.9c-0.6,0.5-1.1,1-1.7,1.5c-0.1,0.1-0.2,0.2-0.3,0.3c-0.3,0.3-0.7,0.6-1,0.9c-0.5,0.4-1,0.9-1.5,1.3
			c-0.7,0.6-1.3,1.1-2,1.7c-0.3,0.3-0.6,0.5-1,0.8c-4.7,3.7-9.6,7.2-14.7,10.3l-0.2-0.3c-0.3,0.2-11.2,7-31.3,14.8
			c-0.3,0.1-0.6,0.2-0.9,0.3c-0.7,0.2-1.3,0.4-2,0.6c-0.4,0.1-0.7,0.2-1.1,0.3c-0.7,0.2-1.3,0.4-2,0.6c-0.4,0.1-0.8,0.2-1.1,0.3
			c-0.7,0.2-1.4,0.4-2,0.5c-0.4,0.1-0.7,0.2-1.1,0.3c-1.1,0.3-2.2,0.5-3.3,0.8c-0.6,0.1-1.2,0.3-1.7,0.4c-0.5,0.1-1,0.2-1.4,0.3
			c-0.7,0.1-1.3,0.3-2,0.4c-0.4,0.1-0.8,0.2-1.3,0.2c-0.8,0.1-1.6,0.3-2.4,0.4c-0.3,0-0.6,0.1-0.9,0.1c-5.5,0.8-11.1,1.4-16.8,1.6
			c-0.4,0-0.8,0-1.2,0c-0.9,0-1.9,0-2.8,0.1c-0.4,0-0.7,0-1.1,0l0,6.6c-22.8,5.3-50.6,9.2-82.4,9.3l-93.1,0.4l0,8.5l93.1-0.4
			c52.7-0.2,94.2-10.8,119.8-19.7c4.5-1.6,8.6-3.1,12.4-4.6c7.5-2.5,14.8-5.6,21.9-9.3c0.4-0.2,0.8-0.4,1.2-0.6
			c0.7-0.4,1.4-0.7,2-1.1c0.4-0.2,0.8-0.5,1.2-0.7c0.2-0.1,0.5-0.3,0.7-0.4c0.8-0.4,1.5-0.9,2.3-1.3c0.2-0.1,0.4-0.2,0.6-0.4
			c0.8-0.5,1.6-1,2.4-1.5c0.2-0.1,0.3-0.2,0.5-0.3c0.8-0.5,1.7-1.1,2.5-1.6c0.1,0,0.1-0.1,0.2-0.1c3.7-2.4,7.3-5,10.8-7.8
			c2.1-1.6,4.1-3.3,6.1-5c4.7-4.1,9.1-8.5,13.3-13.1c0,0,0,0,0-0.1c0.8-0.9,1.6-1.8,2.4-2.7c0.2-0.2,0.3-0.4,0.5-0.6
			c0.9-1.1,1.8-2.2,2.7-3.2c0.7-0.9,1.4-1.8,2.1-2.6c0.2-0.3,0.4-0.5,0.6-0.8c0.9-1.1,1.7-2.3,2.6-3.5c0,0,0,0,0.1-0.1
			c1-1.4,1.9-2.7,2.8-4.1c5.2-7.7,9.5-15.7,13.1-23.9c0.1-0.2,0.2-0.4,0.3-0.6c0.3-0.6,0.5-1.3,0.8-1.9c0.3-0.7,0.6-1.3,0.8-2
			c0-0.1,0.1-0.2,0.1-0.2c6.5-16.3,10.2-33.5,11-50.8c0.1-2.6,0.2-5.2,0.2-7.9C522.7,194.2,522.6,191.5,522.5,188.9z"/>
		<path id="XMLID_98_" class="st12" d="M542,196.8c-0.4-96.9-79.1-175.1-176.2-174.7l0,9.9c91.6-0.4,165.8,73.4,166.2,164.8
			c0.2,56-27.4,105.6-69.8,135.7l0-0.1c0,0-0.2,0.2-0.5,0.4c-26.7,18.8-59.4,30-94.5,30.1l0,5.3c-29,5.4-66.9,9.6-115.2,9.8
			c-0.3,0-0.6,0-0.9,0l-88.3,0.4l0,9.3l88.3-0.4c0.3,0,0.7,0,1,0c76.1-0.3,127-10.3,158.7-20C486.5,347.7,542.3,278.7,542,196.8z"/>
		<path id="XMLID_97_" class="st13" d="M518.7,132.5c-8.4-19.7-20.4-37.3-35.7-52.4c-15.3-15.1-33-27-52.8-35.2
			c-20.4-8.5-42-12.8-64.5-12.7l0,9.2c1.9,0,3.9,0,5.8,0.1c0,0,0.1,0,0.1,0c19,0.6,37.5,4.6,55,11.9c13.2,5.5,25.5,12.8,36.6,21.6
			c0,0,0,0,0,0c1.1,0.9,2.2,1.8,3.3,2.7c0.1,0.1,0.2,0.2,0.3,0.3c1.1,0.9,2.2,1.9,3.2,2.8c0,0,0,0,0,0c1.5,1.3,2.9,2.6,4.3,4
			c0.3,0.3,0.6,0.6,0.9,0.8c0.3,0.3,0.7,0.7,1,1c0.2,0.2,0.4,0.4,0.6,0.6c0.4,0.4,0.9,0.9,1.3,1.4c0.4,0.4,0.8,0.9,1.2,1.3
			c0.5,0.5,1,1,1.5,1.6c0.4,0.4,0.8,0.8,1.1,1.2c0.5,0.5,0.9,1,1.4,1.5c0.4,0.5,0.8,1,1.3,1.4c0.4,0.4,0.7,0.9,1.1,1.3
			c0.5,0.6,1,1.2,1.5,1.8c0.2,0.3,0.5,0.6,0.7,0.9c0.6,0.8,1.3,1.6,1.9,2.4c0.1,0.1,0.2,0.2,0.3,0.3c7.9,10.3,14.5,21.6,19.7,33.6
			c8.2,19.2,12.4,39.6,12.5,60.7s-4,41.5-12,60.8c-5.7,13.5-13.1,26.1-22.3,37.5c0,0,0,0,0,0c-0.8,1-1.6,1.9-2.4,2.9
			c0,0-0.1,0.1-0.1,0.1c-0.8,1-1.6,1.9-2.5,2.8c0,0-0.1,0.1-0.1,0.1c-0.8,0.9-1.6,1.7-2.4,2.6c0,0,0,0.1-0.1,0.1
			c-1.1,1.2-2.2,2.3-3.3,3.4c0,0-0.1,0.1-0.1,0.1c0,0-0.1,0.1-0.1,0.1c-1,1-2,2-3,3c-0.3,0.3-0.7,0.7-1.1,1c-0.7,0.7-1.5,1.4-2.2,2
			c-0.4,0.3-0.8,0.7-1.2,1c-0.9,0.8-1.7,1.5-2.6,2.2c-0.2,0.2-0.5,0.4-0.7,0.6c-2.6,2.2-5.3,4.3-8,6.3l-0.1-0.1c0,0-0.6,0.5-1.7,1.4
			c-9,6.4-18.8,11.9-29.1,16.3c-19.2,8.2-39.5,12.4-60.8,12.5l0,6.1c-26.3,5.2-60.2,9.3-102.5,9.4l-89.2,0.4l0,8.5l89.2-0.4
			c76.1-0.3,125.6-12.6,154.1-23.2c4.3-1.4,8.6-3,12.8-4.8c19.7-8.4,37.3-20.4,52.4-35.7c15.1-15.3,27-33,35.2-52.7
			c8.5-20.4,12.8-42.1,12.7-64.4S527.4,152.9,518.7,132.5z"/>
		<path id="XMLID_96_" class="st12" d="M483.6,377.2c-0.3,0-0.7,0-1,0c-48.3,0.2-86-3.7-115.4-8.9l0-5.3
			c-35.2,0.1-67.8-10.7-94.7-29.3c-0.3-0.2-0.4-0.4-0.4-0.4l0,0.1c-42.7-29.8-70.7-79.2-71-135.1C200.7,106.8,274.6,32.4,365.8,32
			l0-9.9c-96.6,0.4-175.1,79.2-174.7,176.1c0.3,81.9,56.7,150.4,132.7,169.5c31.7,9.5,82.8,19.1,158.8,18.8c0.3,0,0.7,0,1,0l56-0.2
			l0-9.3L483.6,377.2z"/>
		<path id="XMLID_95_" class="st13" d="M469.9,368.3c-42.3,0.2-76.1-3.6-102.8-8.6l0-6.1c-1.9,0-3.8,0-5.7-0.1c0,0,0,0,0,0
			c-19-0.6-37.5-4.6-55-11.9c-10.4-4.4-20.2-9.8-29.4-16.2c-0.9-0.8-1.4-1.2-1.4-1.2l-0.1,0.1c-1.9-1.4-3.8-2.8-5.7-4.3c0,0,0,0,0,0
			c-1.1-0.9-2.2-1.8-3.3-2.7c-0.1-0.1-0.2-0.2-0.3-0.2c-1.1-0.9-2.2-1.9-3.3-2.8c0,0,0,0,0,0c-1.5-1.3-2.9-2.6-4.3-4
			c-0.3-0.3-0.6-0.6-0.9-0.8c-0.3-0.3-0.7-0.7-1-1c-0.2-0.2-0.4-0.4-0.6-0.6c-0.5-0.5-0.9-0.9-1.3-1.4c-0.4-0.4-0.8-0.8-1.2-1.3
			c-0.5-0.5-1-1-1.5-1.6c-0.4-0.4-0.8-0.8-1.1-1.2c-0.5-0.5-0.9-1-1.4-1.5c-0.4-0.5-0.8-1-1.3-1.4c-0.4-0.4-0.7-0.9-1.1-1.3
			c-0.5-0.6-1-1.2-1.5-1.8c-0.2-0.3-0.5-0.6-0.7-0.9c-0.6-0.8-1.3-1.6-1.9-2.4c-0.1-0.1-0.2-0.2-0.3-0.3
			c-7.9-10.3-14.5-21.6-19.7-33.6c-8.2-19.2-12.4-39.6-12.5-60.7s4-41.5,12-60.8c5.7-13.5,13.1-26.1,22.3-37.5c0,0,0,0,0,0
			c0.8-1,1.6-2,2.4-2.9c0,0,0.1-0.1,0.1-0.1c0.8-1,1.6-1.9,2.5-2.8c0,0,0.1-0.1,0.1-0.1c0.8-0.9,1.6-1.7,2.4-2.6c0,0,0,0,0,0
			c1.1-1.2,2.2-2.3,3.3-3.5c0,0,0,0,0,0c0.1-0.1,0.1-0.1,0.2-0.2c1-1,2-2,3-3c0.3-0.3,0.7-0.6,1-0.9c0.8-0.7,1.5-1.4,2.3-2.1
			c0.4-0.3,0.7-0.7,1.1-1c0.9-0.8,1.8-1.6,2.7-2.3c0.2-0.2,0.4-0.3,0.6-0.5c11.7-9.8,24.7-17.8,38.8-23.9
			c19.2-8.2,39.8-12.4,60.7-12.5l0-9.2c-22.4,0.1-43.9,4.5-64.3,13.2c-19.7,8.4-37.3,20.4-52.4,35.7c-15.1,15.3-27,33-35.2,52.7
			c-8.5,20.4-12.8,42.1-12.7,64.4c0.1,22.3,4.6,44,13.3,64.3c8.4,19.7,20.4,37.3,35.7,52.4s33,27,52.7,35.2
			c4.2,1.8,8.5,3.3,12.8,4.7c28.6,10.4,78.2,22.3,154.3,22l99.8-0.4l0-8.5L469.9,368.3z"/>
		<path id="XMLID_94_" class="st11" d="M449.8,360.3c-32.2,0.1-60.2-3.7-82.6-8.7l0-6.6c0,0,0,0-0.1,0c-9.9,0-19.6-0.9-29.1-2.8
			c0,0-0.1,0-0.1,0c-1.2-0.2-2.3-0.5-3.5-0.7c-0.1,0-0.2,0-0.3-0.1c-0.9-0.2-1.9-0.4-2.8-0.7c-0.4-0.1-0.8-0.2-1.1-0.3
			c-0.7-0.2-1.3-0.3-2-0.5c-0.4-0.1-0.9-0.2-1.3-0.3c-0.9-0.3-1.8-0.5-2.8-0.8c-0.6-0.2-1.1-0.4-1.7-0.5c-0.3-0.1-0.7-0.2-1-0.3
			c-19.6-7.6-30.4-14.2-30.6-14.3l0,0l-0.2,0.3c-9.3-5.6-17.9-12.1-25.7-19.7c-8.1-7.7-15.2-16.3-21.4-25.7c-0.2-0.3-0.4-0.7-0.6-1
			c-0.1-0.2-0.2-0.3-0.3-0.5c-0.5-0.8-1-1.6-1.5-2.4c-0.2-0.3-0.4-0.6-0.6-1c-0.4-0.7-0.8-1.3-1.2-2c-0.2-0.4-0.5-0.9-0.7-1.3
			c0,0,0-0.1-0.1-0.1c0,0,0,0,0,0c-0.3-0.5-0.6-1-0.9-1.6c-0.2-0.4-0.5-0.9-0.7-1.3c-0.1-0.2-0.2-0.4-0.4-0.7
			c-0.2-0.4-0.4-0.7-0.6-1.1c-0.2-0.4-0.4-0.8-0.6-1.2c-0.2-0.4-0.4-0.8-0.6-1.2c-0.1-0.2-0.2-0.5-0.3-0.7c-0.2-0.4-0.4-0.8-0.6-1.2
			c-0.4-0.8-0.7-1.5-1.1-2.3c-0.1-0.3-0.3-0.6-0.4-0.9c-0.4-0.8-0.7-1.6-1.1-2.5c-0.1-0.1-0.1-0.3-0.2-0.4c-0.1-0.1-0.1-0.2-0.1-0.4
			c-0.4-0.8-0.7-1.7-1-2.5c-0.1-0.3-0.3-0.7-0.4-1c-0.3-0.8-0.6-1.5-0.9-2.3c-0.2-0.5-0.3-0.9-0.5-1.4c-0.2-0.6-0.4-1.2-0.7-1.9
			c-0.2-0.6-0.4-1.2-0.6-1.8c-0.2-0.5-0.3-0.9-0.5-1.4c-0.2-0.8-0.5-1.5-0.7-2.3c-0.1-0.3-0.2-0.7-0.3-1c-0.3-0.9-0.5-1.7-0.8-2.6
			c0-0.1-0.1-0.3-0.1-0.4c0-0.2-0.1-0.3-0.1-0.5c-0.2-0.9-0.5-1.7-0.7-2.6c-0.1-0.3-0.2-0.6-0.2-0.9c-0.2-0.8-0.4-1.6-0.6-2.4
			c-0.1-0.5-0.2-0.9-0.3-1.4c-0.1-0.7-0.3-1.3-0.4-2c-0.1-0.7-0.3-1.4-0.4-2c-0.1-0.4-0.2-0.8-0.2-1.3c-0.2-1-0.3-2-0.5-3
			c0-0.1,0-0.2,0-0.3c-0.9-5.6-1.4-11.2-1.6-16.9c-0.4-10.3,0.3-20.5,2-30.7c0-0.3,0.1-0.5,0.1-0.8c0.1-0.7,0.2-1.3,0.4-2
			c0-0.2,0.1-0.4,0.1-0.6c0.1-0.6,0.2-1.1,0.3-1.7c0.1-0.6,0.3-1.2,0.4-1.9c0.1-0.6,0.3-1.3,0.4-1.9c0.1-0.5,0.3-1.1,0.4-1.6
			c0.2-0.7,0.3-1.3,0.5-2c0.1-0.5,0.3-1.1,0.4-1.6c0.2-0.6,0.3-1.2,0.5-1.9c0.2-0.6,0.3-1.1,0.5-1.7c0.2-0.6,0.4-1.1,0.5-1.7
			c0.2-0.6,0.4-1.2,0.6-1.8c0.2-0.5,0.4-1,0.5-1.6c0.2-0.6,0.4-1.3,0.7-1.9c0.2-0.5,0.4-1,0.6-1.6c0.2-0.6,0.5-1.2,0.7-1.9
			c0.2-0.6,0.4-1.1,0.7-1.7c0.1-0.2,0.2-0.5,0.3-0.7c0.1-0.3,0.3-0.6,0.4-0.9c0.1-0.2,0.1-0.3,0.2-0.5c0.1-0.3,0.3-0.7,0.4-1
			c0.2-0.4,0.3-0.8,0.5-1.2c0.1-0.2,0.1-0.3,0.2-0.5c0.2-0.5,0.4-1,0.7-1.5c0.2-0.5,0.5-1,0.7-1.5c0.3-0.5,0.5-1.1,0.8-1.6
			c0.3-0.5,0.5-1.1,0.8-1.6c0.2-0.5,0.5-1,0.8-1.5c0.3-0.6,0.6-1.2,0.9-1.8c0.2-0.4,0.4-0.8,0.7-1.3c0.2-0.3,0.3-0.6,0.5-0.9
			c0.2-0.4,0.4-0.7,0.6-1.1c0.2-0.3,0.4-0.7,0.6-1c0.5-0.8,0.9-1.6,1.4-2.4c0.1-0.2,0.2-0.3,0.3-0.5c7.4-12.2,16.4-23.3,27-32.9
			c0.5-0.5,1.1-0.9,1.6-1.4c0.1-0.1,0.2-0.2,0.3-0.3c0.4-0.3,0.8-0.7,1.2-1c0.5-0.4,0.9-0.8,1.4-1.2c0.7-0.6,1.5-1.2,2.2-1.8
			c0.3-0.2,0.5-0.4,0.8-0.7c8.3-6.6,17.3-12.3,26.9-17c0,0,0,0,0,0c0.7-0.3,1.4-0.7,2-1c0.4-0.2,0.7-0.3,1.1-0.5
			c0.6-0.3,1.1-0.5,1.7-0.8c0.5-0.2,1-0.4,1.4-0.6c0.3-0.1,0.5-0.2,0.8-0.3c0.3-0.1,0.5-0.2,0.8-0.3c0.5-0.2,1.1-0.5,1.6-0.7
			c0.5-0.2,1-0.4,1.6-0.6c0.5-0.2,1-0.4,1.5-0.6c0.6-0.2,1.1-0.4,1.7-0.6c0.1,0,0.3-0.1,0.4-0.1c1.6-0.6,3.1-1.1,4.7-1.6
			c0.3-0.1,0.5-0.2,0.8-0.3c0.7-0.2,1.4-0.5,2.2-0.7c0.3-0.1,0.6-0.2,0.9-0.3c0.7-0.2,1.4-0.4,2.2-0.6c0.3-0.1,0.6-0.2,0.9-0.2
			c0.7-0.2,1.5-0.4,2.2-0.6c0.2-0.1,0.4-0.1,0.7-0.2c1.4-0.4,2.9-0.7,4.3-1c0.4-0.1,0.7-0.2,1.1-0.2c0.6-0.1,1.1-0.2,1.7-0.3
			c0.6-0.1,1.1-0.2,1.7-0.3c0.5-0.1,1-0.2,1.5-0.3c0.7-0.1,1.4-0.2,2.1-0.4c0.4-0.1,0.7-0.1,1.1-0.2c1-0.2,2.1-0.3,3.1-0.4
			c0.1,0,0.1,0,0.2,0c4.4-0.6,8.9-0.9,13.4-1.1c0.4,0,0.8,0,1.2,0c0.9,0,1.8,0,2.7-0.1c0.4,0,0.6,0,1,0l0-8.6
			c-2.3,0-4.5,0.1-6.7,0.2c-0.6,0-1.1,0.1-1.7,0.1c-0.6,0-1.2,0.1-1.8,0.1c-1,0.1-2,0.2-3.1,0.2c-0.3,0-0.6,0.1-0.9,0.1
			c-19.9,1.9-39.4,7.7-57.3,17c-0.4,0.2-0.7,0.4-1.1,0.6c-0.7,0.4-1.5,0.8-2.2,1.2c-0.4,0.2-0.8,0.4-1.2,0.7
			c-0.2,0.1-0.4,0.2-0.6,0.3c-0.8,0.5-1.6,0.9-2.4,1.4c-0.2,0.1-0.4,0.2-0.6,0.3c-0.8,0.5-1.6,1-2.4,1.5c-0.1,0.1-0.3,0.2-0.4,0.3
			c-0.9,0.5-1.7,1.1-2.5,1.6c0,0-0.1,0-0.1,0.1c-3.7,2.4-7.3,5-10.8,7.8c-2.1,1.6-4.1,3.3-6.1,5c-4.7,4.1-9.1,8.4-13.3,13
			c0,0-0.1,0.1-0.1,0.1c-0.8,0.9-1.6,1.8-2.4,2.7c-0.2,0.2-0.4,0.5-0.6,0.7c-0.9,1-1.7,2-2.5,3.1c-0.7,0.9-1.4,1.8-2.1,2.7
			c-0.2,0.3-0.4,0.5-0.6,0.8c-0.9,1.2-1.8,2.3-2.6,3.5c0,0,0,0,0,0c-1,1.4-1.9,2.7-2.9,4.1c-5.2,7.7-9.5,15.7-13.1,23.9
			c-0.1,0.2-0.2,0.4-0.3,0.6c-0.3,0.6-0.5,1.3-0.8,1.9c-0.3,0.7-0.6,1.3-0.8,2c0,0.1-0.1,0.2-0.1,0.3c-6.5,16.2-10.2,33.4-11,50.8
			c-0.1,2.6-0.2,5.2-0.2,7.9c0,2.7,0.1,5.4,0.2,8c0,0,0,0.1,0,0.1c0.1,1.1,0.1,2.3,0.2,3.4c0.1,0.9,0.1,1.7,0.2,2.6
			c0,0.3,0.1,0.6,0.1,0.9c1.9,18.5,7.1,36.7,15.4,53.5c0,0.1,0,0.1,0.1,0.2c0,0.1,0.1,0.2,0.1,0.3c0.3,0.6,0.6,1.2,0.9,1.8
			c0.3,0.5,0.5,1,0.8,1.5c0.2,0.3,0.3,0.6,0.5,1c0.5,0.9,0.9,1.7,1.4,2.6c0.1,0.2,0.3,0.5,0.4,0.7c0.5,0.9,1.1,1.8,1.6,2.8
			c0.1,0.2,0.2,0.4,0.3,0.5c0.6,1,1.2,2,1.8,3c0.1,0.1,0.1,0.2,0.2,0.3c0.7,1.1,1.4,2.1,2.1,3.2c0,0,0,0,0,0
			c2.2,3.3,4.6,6.5,7.1,9.7c0.9,1.2,1.9,2.4,2.9,3.5c0.2,0.2,0.3,0.4,0.5,0.6c0.7,0.8,1.4,1.7,2.1,2.5c0.4,0.5,0.9,1,1.3,1.5
			c0.4,0.5,0.8,0.9,1.2,1.3c0.6,0.7,1.2,1.3,1.9,2c0.1,0.1,0.3,0.3,0.4,0.4c4.2,4.4,8.7,8.5,13.4,12.3c0.2,0.2,0.5,0.4,0.7,0.6
			c0.7,0.6,1.4,1.1,2.1,1.6c0.9,0.7,1.8,1.4,2.7,2.1c0,0,0.1,0.1,0.1,0.1c2.1,1.6,4.3,3.1,6.6,4.6c7.3,4.9,14.8,9,22.5,12.5
			c0.3,0.2,0.7,0.3,1,0.5c0.4,0.2,0.9,0.4,1.3,0.6c1,0.4,2,0.9,3.1,1.3c0.1,0,0.2,0.1,0.2,0.1c3.3,1.3,6.6,2.5,9.9,3.6
			c3.7,1.4,7.7,2.8,12.1,4.3c25.6,8.7,67.2,18.9,119.9,18.7l92.9-0.4l0-8.5L449.8,360.3z"/>
		<polygon id="XMLID_93_" class="st13" points="475.8,286.2 481,278.4 501.6,292.1 505.5,286.1 485,272.5 490.2,264.7 425,221.1 
			419.8,228.8 381.6,203.4 377.6,209.3 415.8,234.8 410.6,242.6 		"/>
		<polygon id="XMLID_92_" class="st12" points="261.1,268.4 266.8,275.8 231.7,303.7 236.1,309.4 271.3,281.4 277.1,288.8 
			338.7,240.2 332.9,232.9 361.5,210.1 357,204.5 328.5,227.2 322.7,219.9 		"/>
	</g>
	<g>
		<path class="st0" d="M569.8,430.2c-6.2,0-12.2-2.7-17.3-7.7c-12.5-12.4-24.9-24.9-37.3-37.3l-1.6,0.7c-1,0.4-1.9,0.8-2.7,1.2
			c-0.1,0-0.2,0.1-0.3,0.1c0.5,3.9,0.4,7.8-1.9,11.3c-3.2,4.9-8.2,5.9-12.6,6.7c-1,0.2-2.1,0.4-3.3,0.7c-1.7,0.4-3.4,0.7-5,0.9
			c-0.6,0.1-1.1,0.2-1.7,0.3c-1.4,0.2-2.6,0.4-3.8,0.4c-3.1,0-10.1-1-13.2-9.5c-1.9,4.6-5.3,9.2-12.8,9.2c-2.2,0-4.4-0.4-7.4-1
			l-3.2-0.6c-1.9-0.4-3.9-0.7-5.8-1.1c-5.5-1.1-8.5-4.1-10-6.4c-0.3-0.4-0.6-1-0.9-1.5c-8,19.6-26.7,32.2-47.9,32.2
			c-4.7,0-9.4-0.6-14-1.8l-5.7-1.5l-1.4-5.7c-0.6-2.2-1.2-7.9,4.6-12.4l3.6-3.6c6.3-6.4,12.8-13,19.5-19.4c-1.6-3.6-3-7.2-4.3-10.7
			c-3.4-1.2-6.8-2.6-10.1-3.9c-5.9,6-11.9,11.9-17.7,17.7l-5.7,5.7c-0.6,0.6-1.2,1.1-1.8,1.7l-0.7,0.6l-9.9,9.2l-5.9-12.2
			c-10.3-21.3,2.1-50,27-63.1c-2.4-2-4.1-4.9-4.9-8.4c-0.4-1.6-0.7-3.2-1.1-4.8c-0.7-2.8-1.3-5.8-1.9-8.8c-1.7-8,2.5-14.9,10.4-17.1
			c0.3-0.1,0.5-0.1,0.8-0.2c0-0.4,0-0.7,0-1.1v-0.5c-2.9-0.7-5-2-6.5-2.9c-0.3-0.2-0.5-0.3-0.8-0.5l-6.2-3.5l1.3-7
			c0.3-1.6,0.6-3.2,0.9-4.8c0.7-3.7,1.4-7.6,2.2-11.4c2.3-11.2,10.6-12.4,14-12.4c0.6,0,1.2,0,1.8,0.1c-3.4-2.8-4.7-6-5.2-8.3
			c-0.5-2.7-0.5-6.9,2.6-11.6c0.6-0.9,1.2-1.8,1.9-2.7c1.4-2.1,2.8-4.1,4-6.1c0.5-0.9,1.1-1.6,1.7-2.3c-9.4-9.4-18.9-19-28.5-28.6
			c-4.9-4.9-8.3-10.4-11.6-15.6c-1.2-1.9-2.4-3.8-3.6-5.6c-1.3-1.8-4.8-8.4,1.3-15.5l0.2-0.2c2.2-2.7,5.3-4.1,8.6-4.1
			c3.8,0,6.3,1.9,7.4,2.9c13.7,8.5,25.1,19.3,33.4,27.7c5.4,5.5,10.7,10.9,15.9,16c0.7-0.7,1.5-1.3,2.5-1.9c2.3-1.4,4.5-2.9,6.8-4.5
			l2.1-1.4c2.8-1.9,5.7-2.8,8.7-2.8c2.6,0,7.5,0.8,11.6,6.1c-1-8.7,3.4-14.7,12.1-16.5c3.3-0.7,6.6-1.3,9.8-1.9c1.4-0.3,5-1,5-1
			l1.2,0c6.2,0,11.3,3.5,13.5,9.2c1.7-4.3,5.1-9,12.7-9c1.9,0,3.8,0.3,6.3,0.8c1.5,0.3,3,0.6,4.5,0.9c2,0.4,3.9,0.8,5.8,1.2
			c5.2,0.9,9,3.9,10.9,8c2-4.8,4.6-9.4,8-13.5c9.9-12.1,24.3-19,39.6-19c4.9,0,9.8,0.7,14.6,2.1l7,2.1l0.2,7.3
			c0.1,6.2-4,9.5-5.3,10.5l-0.1,0.1c-6.9,6.9-14.7,14.8-22.7,22.7c1.3,3,2.5,6.3,3.9,10.1c3.3,1.3,7,2.8,10.7,4.4
			c3.8-3.8,7.6-7.7,11.3-11.4c3.5-3.5,7.1-7.1,10.6-10.6c0.2-0.2,0.4-0.4,0.5-0.6c0.9-1.1,2.4-2.8,4.6-4.2l11.4-7.3l3.6,13
			c5.3,18.8,1.3,36-11.4,49.7c-4.8,5.2-10.2,9.2-16.1,11.9c1.2,1,2.2,2.3,3.1,3.8c1.3,2.5,1.9,5.1,2.7,8.4c0.1,0.6,0.3,1.3,0.4,2
			c0.2,0.8,0.3,1.6,0.5,2.4c0.1,0.8,0.3,1.6,0.4,2c2.8,7.7,0.5,15-6.1,19.6l-2,1.4l-2.2,0.3l0,1c0.1,0,0.2,0,0.2,0
			c8.4,1.8,13.1,9,11.4,17.3c-0.3,1.7-0.7,3.3-1,5c-0.5,2.3-0.9,4.7-1.4,7c-1.8,8.8-6.5,13.2-14,13.2c-1.1,0-2.3-0.1-3.7-0.3
			c-0.2,0.4-0.4,0.8-0.6,1.3c-0.2,0.5-0.5,1-0.8,1.7l-0.4,0.8c3.7,3.7,7.3,7.3,11,11c8.9,8.9,17.8,17.8,26.8,26.8
			c10,10,9.9,23.9,0,34l-3.8,3.9c-4.6,4.6-9.3,9.4-14.1,14C581.7,427.7,575.9,430.2,569.8,430.2
			C569.8,430.2,569.8,430.2,569.8,430.2z"/>
		<g>
			<circle class="st0" cx="469.3" cy="287.6" r="90"/>
			<path class="st4" d="M460.2,268.5c18.5-18.5,37-37.1,55.7-55.5c2-2,1.8-3.8,1.3-6.2c-6.2-31,22.4-57.7,52.3-48.8
				c0,1.7-1.4,2.3-2.3,3.2c-8.4,8.5-16.9,17-25.4,25.4c-1.6,1.5-2,2.8-1.1,4.9c2.1,4.9,4.1,9.9,5.9,14.9c0.7,1.9,1.8,2.8,3.6,3.5
				c5.2,2,10.4,4.1,15.5,6.5c2.2,1,3.4,0.4,4.9-1.1c8.1-8.3,16.3-16.4,24.5-24.6c1.1-1.1,2-2.5,3.4-3.5c4.3,15.4,1.5,28.9-9.1,40.2
				c-10.9,11.7-24.6,15.1-40,12.5c-1.8-0.3-3.2-0.8-4.8,0.9c-11.2,11.3-22.4,22.5-33.7,33.8c-0.5,0.5-0.8,0.9-0.7,1.6
				c-3.5,1.1-5.1,4.3-7.1,7c-1.6-1.5-3.1-3-4.7-4.5c-3.2-3-6.1-3.1-9.3-0.1c-2.2,2.1-4.4,4.2-6.6,6.3c-0.5-1.5-1.9-2.2-2.9-3.4
				c-2.4-2.9-4.9-3.1-7.6-0.5c-1.3-1.1-2.6-2.2-3.9-3.3C466,274.2,461.9,272.4,460.2,268.5z"/>
			<path class="st14" d="M460.2,268.5c1.7,3.8,5.8,5.6,7.9,9.2c-1.8,3.4-3.5,6.9-3.8,10.8l0-0.1c-0.2,0.3-0.5,0.7-0.7,1
				c-0.2,0.2-0.4,0.4-0.6,0.5c-4.2-4.1-8.3-8.3-12.5-12.4c-0.5-1-1.3-1.5-2.4-1.7c-0.1-1.8-1.6-2.5-2.7-3.6
				c-31.1-31.1-62.2-62.2-93.3-93.4c-5.8-5.8-9.5-13.1-14.1-19.8c-1.1-1.6,0-2.6,0.9-3.7c1.1-1.3,1.7,0,2.5,0.5
				c12,7.3,22.3,16.6,32.1,26.6c27.4,27.8,55.1,55.3,82.8,82.9C457.4,266.8,458.3,268.4,460.2,268.5z"/>
			<path class="st15" d="M507.6,287.7c11.9,12,23.8,24,35.7,36c18.1,18.1,36.2,36.1,54.2,54.2c6.1,6.1,6.1,13.7,0,19.9
				c-5.9,6-11.8,11.9-17.8,17.8c-6.4,6.2-13.9,6.1-20.2-0.2c-30.6-30.6-61.1-61.1-91.7-91.7c-1.1-1.1-2.3-2-3.4-3
				c-1.1-1.2-2.1-2.5-3.3-3.7c-3.7-3.9-3.8-6.6-0.1-10.5c1.8-1.9,3.7-3.8,5.6-5.8c5.3-5.3,10.5-10.6,15.8-15.8
				c2.2-2.1,4.4-4.2,6.6-6.3c3.2-3,6.1-2.9,9.3,0.1c1.6,1.5,3.1,3,4.7,4.5C504.5,284.7,506.1,286.2,507.6,287.7z M491.8,287
				c-1.6,1.7-3.2,3.1-4.5,4.8c-1,1.4,0.4,2.3,1.3,3.2c32.1,32.1,64.2,64.2,96.3,96.3c0.9,0.9,1.9,2.5,3.5,1.3
				c1.7-1.3,3.4-2.7,4.4-4.7c0.1-0.2-0.2-0.7-0.5-0.9c-2.1-1.4-3.3-3.5-5-5.2c-7.4-7.2-14.8-14.4-22.1-21.7
				c-6.9-6.9-13.5-13.9-20.4-20.8c-7.2-7.2-14.6-14.2-21.9-21.4c-9.7-9.6-19.3-19.3-28.9-28.9C493.4,288.3,492.7,287.8,491.8,287z
				 M474.4,305.3c-2,0.6-3.4,2.4-4.6,4.1c-1.1,1.8,0.8,2.7,1.8,3.7c21.1,21.2,42.3,42.3,63.4,63.4c10.8,10.8,21.7,21.5,32.3,32.4
				c3,3.1,4.2,0.4,6.1-1.1c2-1.6,1.8-2.7,0-4.5c-32.1-32-64.1-64-96.1-96C476.5,306.6,475.8,305.6,474.4,305.3z"/>
			<path class="st16" d="M482.4,284.9c-5.3,5.3-10.5,10.6-15.8,15.8c-1.1-1-2.2-2-3.3-3c-2.8-2.4-3-5-0.4-7.7
				c0.2-0.2,0.4-0.4,0.6-0.5c0.2-0.3,0.5-0.7,0.7-1c0,0,0,0.1,0,0.1c3.2-1.9,5.5-4.7,7.7-7.5c2.7-2.6,5.3-2.4,7.6,0.5
				C480.5,282.7,481.9,283.4,482.4,284.9z"/>
			<path class="st17" d="M471.9,281c-2.2,2.9-4.5,5.7-7.7,7.5c0.3-4,2-7.4,3.8-10.8C469.3,278.8,470.6,279.9,471.9,281z"/>
			<path class="st4" d="M462.9,290.1c-2.6,2.7-2.5,5.2,0.4,7.7c1.1,1,2.2,2,3.3,3c-1.9,1.9-3.7,3.8-5.6,5.8
				c-3.7,3.9-3.6,6.6,0.1,10.5c1.1,1.2,2.2,2.5,3.3,3.7c-12.9,12.9-25.7,26-38.8,38.7c-3.3,3.2-5.3,6.2-3.3,10.7
				c0.8,7.6,0.2,15-2.6,22.1c-7.9,20-29.1,30.4-50.2,24.8c-0.4-1.5,1-1.9,1.7-2.6c8.4-8.5,16.8-17,25.4-25.3
				c2.2-2.2,2.4-3.8,1.2-6.5c-2.2-4.6-4-9.3-5.8-14.1c-0.8-2-1.9-3.3-4.1-4.1c-4.9-1.8-9.7-3.7-14.5-5.8c-2.1-0.9-3.4-0.5-4.9,1.1
				c-8.6,8.7-17.2,17.3-25.9,25.9c-0.7,0.7-1.5,1.4-2.2,2.1c-7.9-16.3,2.9-39.8,23-50.1c8.7-3.4,17.7-4.4,26.9-2.1
				c1.4,0.4,2.6,0.2,3.8-1c15.3-15.4,30.7-30.7,46-46.1c0.2-0.2,0.2-0.7,0.3-1c3.7-2.9,7-6.2,10-9.9
				C454.6,281.8,458.7,285.9,462.9,290.1z"/>
			<path class="st17" d="M464.2,288.5c-0.2,0.3-0.5,0.7-0.7,1C463.8,289.2,464,288.8,464.2,288.5z"/>
			<path class="st18" d="M510.7,287.5c-0.5,0-1.1,0-1.6,0C509.7,286.9,510.2,287,510.7,287.5z"/>
			<g>
				<path class="st18" d="M456.2,177.8c2.6,0,4,1.4,4.6,3.7c0.7,2.8-0.1,6.6,2.4,8c2.1,1.2,5.4,0.3,8.2,0.3c5.6,0,5.6,0,6.8-5.5
					c1.4-6.6,2-7,8.7-5.7c3.5,0.7,7,1.5,10.5,2.1c3.3,0.6,4.5,2.5,4,5.7c-0.1,0.5-0.3,1-0.4,1.5c-1.3,6.4-1.3,6.5,4.6,8.8
					c2.1,0.8,3.1,1.9,2.8,4.2c-0.1,1,0,2,0.1,3c0.4,4-2.5,9.1-5.9,10.9c-1,0.5-1.7,0-2.5-0.3c-25.6-10.2-50.2-8-73.7,6.5
					c-1.8,1.1-2.8,0.8-4.1-0.6c-6-6.2-12.2-12.3-18.3-18.3c-1.6-1.5-1.7-2.4,0.2-3.7c3.1-1.9,6.2-4,9.2-6.1c2.7-1.8,4.9-1.4,6.9,1.2
					c1.6,2.2,2.3,5.9,5,6.3c2.3,0.3,4.8-1.8,7.3-2.8c6.6-2.8,6.6-2.8,5.5-10.2c-0.6-4,0.3-5.4,4.2-6.2
					C447,179.6,451.6,178.7,456.2,177.8z"/>
				<path class="st18" d="M371.7,287.7c0-9.6,1-7.2-7.3-9.1c-1.9-0.4-3.4-1.5-5-2.4c1-5.4,2-10.7,3.1-16.1c0.8-4,2.3-4.9,6.1-4.3
					c7.6,1.3,7.7,1.3,10.5-5.7c1-2.4,3.5-4.9,2.5-7.2c-0.9-2-3.9-3.1-6-4.4c-3-1.9-3.3-4.3-1.4-7.1c2.1-3.1,4.2-6,6.1-9.2
					c1.1-1.9,1.9-1.7,3.3-0.3c6,6.2,12.1,12.3,18.3,18.3c1.7,1.7,1.8,2.8,0.5,4.8c-5.2,7.9-8.7,16.6-10.7,25.9
					c-0.4,1.7-1.2,3.4-0.3,5.2c-1.8,3.7-1.5,7.6-1.6,11.5c0.2,10.1,2,19.9,5.8,29.3c1.4,3.5-3.2,10.1-7.1,10
					c-2.4-0.1-4.8-0.4-7.2-0.5c-1.3-0.1-2.3-0.5-2.5-1.8c-0.8-4.4-3.4-4.6-6.8-3.3c-1.1,0.4-2.2,0.5-3.3,0.8c-3,0.6-4.9-0.6-5.6-3.6
					c-1-4.5-2.1-8.9-3-13.4c-0.6-2.8,0.4-4.6,3.3-5.4c2.7-0.8,6.5-0.2,7.7-2.3c1.3-2.2,0.3-5.6,0.3-8.5
					C371.7,288.4,371.7,288,371.7,287.7z"/>
				<path class="st18" d="M575.8,276.1c-0.4,0-0.8,0.1-1.1,0.1c-7.4,0-7.5,0.1-7.4,7.2c0,1.4,0,2.8,0,4.2c0,7.5,0,7.5,7.4,9.1
					c0.2,0.1,0.5,0.1,0.8,0.1c3,0.7,4.3,2.5,3.7,5.5c-0.8,4-1.6,8-2.4,12c-1.1,5.1-2.1,5.8-7.3,4.8c-6.5-1.3-6.5-1.3-9.1,4.7
					c-0.4,1-1,2-1.9,4c-4.5-4.8-8.6-9.2-12.9-13.6c-1.2-1.3-0.5-2.4-0.2-3.5c2.5-7.6,3.5-15.3,3.7-23.3c-0.1-3.9,0.1-7.8-1.6-11.5
					c0.6-6.2-1.9-11.7-4-17.2c-1.2-3-1.4-5.1,1.4-7.1c2.1-1.5,3.3-4.7,6.9-3.4c1,0.4,2.3,0.4,3.4,0.2c3.1-0.4,5.1,0.7,5.7,3.9
					c0.4,2.1,1.6,2.4,3.6,1.9c11.1-2.8,10.3-2.1,12.6,8.1c0.4,1.9,0.6,3.8,1.2,5.6C579.4,271.5,578.6,274.1,575.8,276.1z"/>
				<path class="st18" d="M430.5,372.5c0.7-2.4-1.5-4.9,0.9-7.5c3.4-3.8,6.3-4.9,11.6-2.8c16,6.2,32.5,6.4,48.9,1.4
					c2.5-0.8,4.1-0.5,5.9,1.5c3.6,3.9,7.6,7.4,11.9,11.6c-3.2,1.3-5.7,2.5-8.3,3.4c-1.8,0.6-2.4,1.4-1.9,3.3c2.9,12.2,1,10.5-9,12.7
					c-2.1,0.5-4.2,0.8-6.4,1.2c-4,0.7-5.5-0.3-6.3-4.4c-1.5-7.4-1.5-7.4-9.1-7.4c-0.9,0-1.8,0.1-2.7,0c-4-0.8-5.2,1.2-5,4.7
					c-2.3,7.7-2.3,7.7-10.5,6.2c-3-0.6-6-1.1-9-1.7c-3.4-0.7-4.7-2.7-4-6.1c0.1-0.2,0.1-0.5,0.2-0.7c1.3-6.6,1.4-6.9-4.8-9.3
					C429.7,377.1,430.9,374.6,430.5,372.5z"/>
			</g>
			<path class="st16" d="M491.8,287c0.9,0.7,1.6,1.3,2.2,1.9c9.6,9.6,19.3,19.3,28.9,28.9c7.3,7.2,14.7,14.2,21.9,21.4
				c6.9,6.9,13.5,13.9,20.4,20.8c7.3,7.3,14.8,14.5,22.1,21.7c1.7,1.7,2.9,3.8,5,5.2c0.3,0.2,0.6,0.7,0.5,0.9c-1,2-2.7,3.4-4.4,4.7
				c-1.6,1.2-2.5-0.3-3.5-1.3c-32.1-32.1-64.2-64.2-96.3-96.3c-0.9-0.9-2.3-1.8-1.3-3.2C488.6,290.2,490.3,288.7,491.8,287z"/>
			<path class="st16" d="M474.4,305.3c1.5,0.3,2.1,1.3,2.9,2.1c32,32,64.1,64.1,96.1,96c1.8,1.8,2,2.9,0,4.5
				c-1.9,1.5-3.1,4.2-6.1,1.1c-10.7-10.9-21.5-21.6-32.3-32.4c-21.1-21.1-42.3-42.3-63.4-63.4c-1-1-2.9-1.9-1.8-3.7
				C471,307.6,472.4,305.9,474.4,305.3z"/>
		</g>
	</g>
</g>
</svg>
